<?xml version="1.0" standalone="no"?><!DOCTYPE svg PUBLIC "-//W3C//DTD SVG 1.1//EN" "http://www.w3.org/Graphics/SVG/1.1/DTD/svg11.dtd"><svg t="1583036639398" class="icon" viewBox="0 0 1024 1024" version="1.1" xmlns="http://www.w3.org/2000/svg" p-id="3015" xmlns:xlink="http://www.w3.org/1999/xlink" width="200" height="200"><defs><style type="text/css"></style></defs><path d="M125.968 825.504a381.336 94.504 0 1 0 762.672 0 381.336 94.504 0 1 0-762.672 0Z" fill="#B8CBCD" p-id="3016"></path><path d="M954.176 552s-198.52 273.904-443.408 273.904S67.36 552 67.36 552s198.52-273.904 443.408-273.904S954.176 552 954.176 552z" fill="#B9E3ED" p-id="3017"></path><path d="M510.768 849.904c-254.208 0-454.44-272.232-462.84-283.824a24 24 0 0 1 0-28.168c8.4-11.584 208.632-283.824 462.84-283.824s454.44 272.232 462.84 283.824a24 24 0 0 1 0 28.168c-8.4 11.592-208.632 283.824-462.84 283.824zM97.728 552c43.96 54.736 214.664 249.904 413.04 249.904S879.848 606.736 923.808 552c-43.96-54.736-214.664-249.904-413.04-249.904S141.688 497.264 97.728 552z" fill="#324654" p-id="3018"></path><path d="M504.424 557.04m-187.264 0a187.264 187.264 0 1 0 374.528 0 187.264 187.264 0 1 0-374.528 0Z" fill="#FFFFFF" p-id="3019"></path><path d="M504.416 760.312c-112.08 0-203.264-91.184-203.264-203.272 0-112.08 91.184-203.264 203.264-203.264S707.688 444.96 707.688 557.04c0 112.088-91.184 203.272-203.272 203.272z m0-374.536c-94.44 0-171.264 76.832-171.264 171.264s76.832 171.272 171.264 171.272c94.44 0 171.272-76.832 171.272-171.272s-76.832-171.264-171.272-171.264z" fill="#324654" p-id="3020"></path><path d="M354.76 625.984h-32v-16c0-35.168 4.64-101.336 35.688-149.488 36.024-55.864 101.808-91.96 167.584-91.96h16v32h-16c-55.184 0-110.408 30.344-140.688 77.304-26.608 41.256-30.576 100.504-30.576 132.144l-0.008 16z" fill="#324654" p-id="3021"></path><path d="M500.28 556.144m-94.408 0a94.408 94.408 0 1 0 188.816 0 94.408 94.408 0 1 0-188.816 0Z" fill="#324654" p-id="3022"></path><path d="M500.28 666.544c-60.88 0-110.408-49.528-110.408-110.408s49.528-110.408 110.408-110.408 110.408 49.528 110.408 110.408-49.528 110.408-110.408 110.408z m0-188.808c-43.232 0-78.408 35.168-78.408 78.408 0 43.232 35.168 78.408 78.408 78.408 43.232 0 78.408-35.168 78.408-78.408s-35.176-78.408-78.408-78.408z" fill="#B9E3ED" p-id="3023"></path><path d="M508 288a24 24 0 0 1-24-24V112a24 24 0 1 1 48 0v152a24 24 0 0 1-24 24zM832.64 403.488a23.984 23.984 0 0 1-16.968-40.968l107.48-107.488a24 24 0 0 1 33.944 33.944l-107.48 107.48a23.96 23.96 0 0 1-16.976 7.032zM196.112 403.488a23.936 23.936 0 0 1-16.976-7.032L71.664 288.968a24 24 0 0 1 33.952-33.944l107.48 107.488a24 24 0 0 1-16.984 40.976z" fill="#324654" p-id="3024"></path></svg>