<?xml version="1.0" standalone="no"?>
<!DOCTYPE svg PUBLIC "-//W3C//DTD SVG 20010904//EN"
 "http://www.w3.org/TR/2001/REC-SVG-20010904/DTD/svg10.dtd">
<svg version="1.0" xmlns="http://www.w3.org/2000/svg"
 width="200.000000pt" height="200.000000pt" viewBox="0 0 200.000000 200.000000"
 preserveAspectRatio="xMidYMid meet">
<metadata>
Created by potrace 1.11, written by Peter Selinger 2001-2013
</metadata>
<g transform="translate(0.000000,200.000000) scale(0.100000,-0.100000)"
fill="#000000" stroke="none">
<path d="M965 1816 c-17 -12 -19 -29 -20 -162 l0 -149 -90 -18 c-111 -23 -250
-83 -354 -152 l-78 -52 -110 112 c-110 113 -138 131 -164 111 -41 -30 -33 -45
86 -166 l116 -117 -58 -54 c-87 -82 -202 -213 -204 -233 -3 -26 5 -43 44 -91
63 -78 216 -227 283 -277 l61 -44 -74 -24 c-79 -25 -130 -57 -149 -93 -37 -68
108 -140 361 -178 208 -31 560 -30 751 1 32 6 75 13 94 16 19 3 60 12 90 21
30 9 57 17 60 17 28 6 99 52 112 73 30 52 -10 96 -124 136 -35 12 -65 25 -68
29 -3 3 24 29 60 56 72 54 228 210 286 284 26 35 35 54 30 70 -7 28 -64 95
-172 205 l-81 81 113 113 c111 111 126 135 105 168 -22 35 -58 15 -169 -96
-60 -60 -111 -115 -113 -122 -3 -9 -22 0 -55 25 -62 48 -78 58 -184 110 -78
38 -236 84 -289 84 -20 0 -21 4 -21 148 0 132 -2 151 -18 165 -23 21 -33 21
-57 3z"/>
</g>
</svg>
